<svg width="146" height="39" viewBox="0 0 146 39" fill="none" xmlns="http://www.w3.org/2000/svg">
<path d="M0.95 26.35H4.85V3.5H0.95V0.849999H12.85V3.5H8.95V13.1H23.95V3.5H20V0.849999H31.9V3.5H28V26.35H31.9V29H20V26.35H23.95V15.95H8.95V26.35H12.85V29H0.95V26.35ZM59.0133 9.35V12H55.7133V29.45C55.7133 32.4833 54.7966 34.7333 52.9633 36.2C51.1299 37.6667 48.6799 38.4 45.6133 38.4C43.2799 38.4 40.8133 38 38.2133 37.2L38.9633 34.3C41.4966 35.0667 43.6799 35.45 45.5133 35.45C47.5799 35.45 49.1799 34.9667 50.3133 34C51.4466 33.0667 52.0133 31.6333 52.0133 29.7V27C51.0799 27.7 50.0299 28.2333 48.8633 28.6C47.7299 28.9667 46.5966 29.15 45.4633 29.15C43.5966 29.15 41.8966 28.75 40.3633 27.95C38.8299 27.1167 37.6133 25.9333 36.7133 24.4C35.8466 22.8667 35.4133 21.0667 35.4133 19C35.4133 16.8667 35.8466 15.05 36.7133 13.55C37.5799 12.0167 38.7633 10.8667 40.2633 10.1C41.7966 9.3 43.4966 8.9 45.3633 8.9C46.4966 8.9 47.6633 9.1 48.8633 9.5C50.0633 9.86667 51.0966 10.4 51.9633 11.1V9.35H59.0133ZM39.2633 19.25C39.2633 21.4833 39.9133 23.2333 41.2133 24.5C42.5133 25.7667 44.1799 26.4 46.2133 26.4C47.1799 26.4 48.1633 26.2333 49.1633 25.9C50.1966 25.5667 51.1466 25.0833 52.0133 24.45L51.9633 13.65C50.9966 13.0167 49.9633 12.5167 48.8633 12.15C47.7966 11.7833 46.7799 11.6 45.8133 11.6C43.8466 11.6 42.2633 12.2833 41.0633 13.65C39.8633 14.9833 39.2633 16.85 39.2633 19.25ZM74.798 8.85C76.598 8.85 78.2147 9.25 79.648 10.05C81.1147 10.8167 82.2647 11.9667 83.098 13.5C83.9314 15 84.348 16.8 84.348 18.9C84.348 21.0667 83.8814 22.95 82.948 24.55C82.048 26.15 80.8147 27.3833 79.248 28.25C77.6814 29.0833 75.9814 29.5 74.148 29.5C71.748 29.5 69.7314 28.7833 68.098 27.35V29H60.748V26.35H64.398V2.95H60.848V0.349999H68.098V11.1C69.098 10.3667 70.1814 9.81667 71.348 9.45C72.5147 9.05 73.6647 8.85 74.798 8.85ZM73.498 26.75C75.5647 26.75 77.248 26.1 78.548 24.8C79.848 23.4667 80.498 21.6 80.498 19.2C80.498 16.8667 79.8647 15.0333 78.598 13.7C77.3647 12.3667 75.7647 11.7 73.798 11.7C72.8647 11.7 71.898 11.8833 70.898 12.25C69.898 12.6167 68.9647 13.15 68.098 13.85V24.75C68.898 25.3833 69.7647 25.8833 70.698 26.25C71.6647 26.5833 72.598 26.75 73.498 26.75ZM99.8711 9.1C101.138 9.1 102.471 9.43333 103.871 10.1L102.971 13.45C101.838 12.7167 100.688 12.35 99.5211 12.35C98.1878 12.35 97.0711 12.9 96.1711 14C95.3044 15.0667 94.8711 16.55 94.8711 18.45L94.8211 26.35H98.3211V29H87.3711V26.35H91.1711V12H87.3711V9.35H94.8211V12.95C95.8878 10.3833 97.5711 9.1 99.8711 9.1ZM114.858 29C111.058 29 109.158 27.0667 109.158 23.2V12H105.908V9.35H109.158V2.65L112.858 1.2V9.35H118.058V12H112.858V23C112.858 24.2333 113.058 25.1 113.458 25.6C113.858 26.1 114.542 26.35 115.508 26.35H118.508V29H114.858ZM145.097 9.35V12H141.797V29.45C141.797 32.4833 140.881 34.7333 139.047 36.2C137.214 37.6667 134.764 38.4 131.697 38.4C129.364 38.4 126.897 38 124.297 37.2L125.047 34.3C127.581 35.0667 129.764 35.45 131.597 35.45C133.664 35.45 135.264 34.9667 136.397 34C137.531 33.0667 138.097 31.6333 138.097 29.7V27C137.164 27.7 136.114 28.2333 134.947 28.6C133.814 28.9667 132.681 29.15 131.547 29.15C129.681 29.15 127.981 28.75 126.447 27.95C124.914 27.1167 123.697 25.9333 122.797 24.4C121.931 22.8667 121.497 21.0667 121.497 19C121.497 16.8667 121.931 15.05 122.797 13.55C123.664 12.0167 124.847 10.8667 126.347 10.1C127.881 9.3 129.581 8.9 131.447 8.9C132.581 8.9 133.747 9.1 134.947 9.5C136.147 9.86667 137.181 10.4 138.047 11.1V9.35H145.097ZM125.347 19.25C125.347 21.4833 125.997 23.2333 127.297 24.5C128.597 25.7667 130.264 26.4 132.297 26.4C133.264 26.4 134.247 26.2333 135.247 25.9C136.281 25.5667 137.231 25.0833 138.097 24.45L138.047 13.65C137.081 13.0167 136.047 12.5167 134.947 12.15C133.881 11.7833 132.864 11.6 131.897 11.6C129.931 11.6 128.347 12.2833 127.147 13.65C125.947 14.9833 125.347 16.85 125.347 19.25Z" fill="black"/>
</svg>
